<?xml version="1.0" standalone="no"?>
<!DOCTYPE svg PUBLIC "-//W3C//DTD SVG 20010904//EN"
 "http://www.w3.org/TR/2001/REC-SVG-20010904/DTD/svg10.dtd">
<svg version="1.0" xmlns="http://www.w3.org/2000/svg"
 width="2257.000000pt" height="2257.000000pt" viewBox="0 0 2257.000000 2257.000000"
 preserveAspectRatio="xMidYMid meet">
<metadata>
Created by potrace 1.14, written by Peter Selinger 2001-2017
</metadata>
<g transform="translate(0.000000,2257.000000) scale(0.100000,-0.100000)"
fill="#000000" stroke="none">
<path d="M660 13836 c-82 -29 -205 -80 -303 -126 l-27 -13 47 -28 c136 -80
235 -229 337 -512 l46 -128 -19 -82 c-43 -184 -54 -232 -53 -234 0 -2 -4 -17
-9 -35 -5 -18 -19 -73 -30 -123 -11 -49 -22 -97 -24 -105 -2 -8 -22 -94 -44
-191 -22 -97 -43 -182 -45 -190 -3 -8 -7 -25 -10 -39 -2 -14 -34 -153 -71
-310 -37 -157 -69 -293 -71 -303 -2 -10 -5 -26 -8 -35 -3 -9 -7 -28 -10 -42
-2 -14 -25 -117 -50 -230 -26 -113 -54 -236 -62 -275 -8 -38 -22 -99 -30 -135
-7 -36 -16 -76 -18 -90 -3 -14 -8 -38 -11 -55 -3 -16 -10 -50 -15 -75 -5 -25
-12 -58 -15 -75 -3 -16 -7 -41 -10 -55 -45 -221 -61 -416 -40 -486 41 -137
175 -185 409 -148 69 11 233 56 257 70 3 2 -18 28 -48 58 -90 94 -134 224
-136 406 -1 113 8 241 23 330 5 30 12 78 16 105 5 40 36 208 110 580 27 137
44 225 48 245 4 23 52 268 62 315 6 29 8 40 75 383 l62 312 22 -47 c21 -43 68
-149 137 -303 20 -44 118 -272 183 -425 205 -480 470 -1040 617 -1304 32 -58
58 -106 58 -108 0 -1 16 -29 36 -60 226 -357 370 -504 551 -558 258 -78 480
243 675 975 11 41 22 83 24 93 2 10 6 27 9 37 3 10 8 27 10 37 2 10 22 95 43
188 59 253 146 707 187 975 4 25 9 53 11 62 3 18 31 209 48 333 10 73 18 145
31 275 27 272 27 434 0 593 -9 49 -59 149 -91 180 -87 87 -224 93 -404 20 -64
-26 -155 -76 -195 -107 -20 -15 -20 -15 4 -32 121 -87 196 -229 247 -473 26
-124 26 -633 -1 -916 -10 -110 -24 -240 -30 -275 -2 -14 -7 -50 -10 -80 -3
-30 -10 -77 -15 -105 -5 -27 -12 -68 -15 -90 -8 -53 -48 -257 -75 -375 -101
-444 -216 -690 -324 -690 -158 0 -456 544 -996 1820 -62 146 -159 375 -217
510 -113 266 -116 272 -161 375 -16 39 -76 176 -132 305 -174 399 -196 439
-279 488 -70 41 -161 41 -281 -2z"/>
<path d="M15852 13844 c-68 -22 -155 -56 -227 -89 -94 -42 -125 -57 -125 -60
0 -2 14 -11 31 -19 133 -66 232 -209 337 -484 l60 -158 -64 -275 c-35 -151
-78 -334 -94 -407 -17 -73 -43 -188 -59 -255 -30 -123 -90 -379 -96 -407 -2
-8 -20 -85 -40 -170 -20 -85 -38 -164 -41 -175 -3 -18 -26 -123 -29 -135 -12
-51 -16 -68 -19 -85 -3 -11 -14 -59 -25 -107 -11 -47 -23 -101 -26 -120 -3
-18 -11 -53 -16 -78 -12 -52 -10 -41 -42 -195 -14 -66 -28 -133 -30 -150 -3
-16 -10 -50 -15 -75 -6 -25 -13 -65 -17 -90 -3 -25 -8 -52 -10 -60 -2 -8 -7
-34 -10 -57 -3 -23 -8 -57 -11 -75 -13 -91 -15 -206 -5 -244 29 -107 115 -165
250 -169 113 -3 288 28 389 70 l35 15 -47 48 c-95 95 -139 228 -140 422 -1
112 2 156 19 305 5 38 23 158 31 200 2 11 8 45 14 75 12 66 18 97 25 130 3 14
8 39 10 55 3 17 8 37 10 45 2 8 7 31 10 50 3 19 10 55 15 80 5 25 12 56 14 70
2 14 7 36 10 50 3 14 8 36 10 50 2 14 7 36 10 50 3 14 8 39 11 55 10 53 34
179 39 205 10 43 26 124 30 145 66 341 129 663 133 675 8 24 33 -31 420 -925
36 -82 80 -183 99 -223 19 -41 34 -75 34 -77 0 -2 25 -56 55 -120 31 -65 65
-139 77 -164 39 -87 245 -496 277 -549 17 -29 31 -55 31 -57 0 -7 120 -206
154 -255 105 -152 231 -288 332 -358 43 -29 124 -60 177 -66 270 -33 497 387
706 1304 41 180 105 488 115 550 3 19 10 58 15 85 6 28 13 66 15 85 3 19 8 46
11 60 3 14 10 54 15 90 12 73 17 104 24 140 6 27 11 66 21 145 4 28 11 69 16
92 5 24 8 46 7 50 -1 7 8 85 17 133 4 25 17 133 30 260 8 77 18 261 18 345 2
233 -49 383 -150 449 -118 76 -313 39 -534 -100 l-46 -29 37 -30 c103 -84 203
-271 226 -424 3 -20 7 -43 9 -51 30 -108 25 -682 -9 -979 -3 -28 -8 -75 -11
-103 -3 -29 -8 -64 -10 -78 -2 -14 -7 -50 -10 -80 -4 -30 -9 -68 -12 -85 -2
-16 -6 -39 -8 -50 -21 -139 -67 -374 -101 -510 -14 -55 -28 -111 -30 -124 -14
-68 -98 -301 -134 -371 -117 -223 -218 -184 -427 165 -115 192 -275 509 -403
795 -21 47 -49 110 -63 140 -13 30 -39 89 -57 130 -17 41 -40 93 -50 115 -10
22 -67 157 -128 300 -294 695 -343 811 -352 830 -13 29 -37 84 -150 345 -153
352 -201 449 -247 495 -77 76 -179 92 -311 49z"/>
<path d="M8203 13786 c-58 -19 -128 -60 -193 -115 -63 -53 -140 -130 -140
-139 0 -4 26 -25 56 -47 115 -82 223 -222 281 -365 27 -66 99 -279 108 -320 2
-8 13 -51 25 -95 33 -122 118 -476 146 -610 38 -180 72 -346 79 -385 28 -158
65 -383 70 -420 3 -25 8 -52 10 -60 2 -8 7 -44 10 -80 4 -36 8 -72 10 -80 1
-8 6 -49 10 -90 4 -41 9 -82 10 -90 2 -13 12 -136 21 -265 4 -63 4 -536 0
-575 -2 -19 -7 -72 -10 -117 -4 -46 -9 -91 -11 -101 -1 -10 -6 -43 -10 -75 -6
-46 -5 -56 6 -53 8 2 48 12 89 21 168 37 342 106 419 166 147 114 426 453 823
999 70 96 131 180 136 185 14 17 275 395 349 505 93 140 305 479 380 610 74
128 223 399 223 405 0 2 22 48 48 102 70 142 159 375 178 464 17 82 21 112 23
175 3 83 -26 147 -80 179 -45 27 -205 27 -294 1 -73 -22 -191 -76 -223 -102
l-23 -19 21 -48 c29 -65 33 -89 32 -182 -1 -147 -62 -376 -162 -610 -23 -55
-47 -106 -52 -112 -6 -7 -8 -13 -5 -13 9 0 -149 -305 -236 -455 -124 -215
-240 -400 -409 -653 -131 -197 -149 -224 -254 -371 -32 -46 -77 -109 -98 -140
-50 -71 -283 -387 -312 -423 l-21 -26 -1 137 c-1 76 -4 167 -6 202 -3 35 -8
109 -11 164 -7 113 -13 194 -20 245 -2 19 -7 64 -11 100 -3 36 -8 73 -9 82 -2
9 -6 41 -10 70 -7 69 -11 98 -25 183 -6 39 -13 84 -16 100 -2 17 -6 41 -9 55
-3 14 -7 41 -10 60 -30 196 -149 713 -224 980 -12 41 -23 83 -26 92 -13 56
-84 272 -127 388 -137 367 -284 561 -434 575 -28 3 -68 -1 -91 -9z"/>
<path d="M6685 13515 c-291 -66 -358 -98 -501 -240 -116 -115 -169 -176 -324
-370 -62 -77 -119 -149 -129 -160 -225 -268 -771 -998 -992 -1325 l-64 -95
-50 2 c-130 5 -335 4 -380 -1 -208 -24 -372 -129 -450 -289 -19 -40 -37 -84
-41 -100 l-6 -27 48 24 c48 24 161 61 212 71 14 2 46 7 71 11 25 4 55 8 66 11
36 7 345 13 345 7 0 -3 -44 -79 -97 -167 -252 -418 -393 -767 -397 -977 -1
-81 1 -89 27 -124 34 -43 63 -57 133 -62 68 -4 148 16 321 78 l142 52 -18 25
c-10 14 -26 47 -36 73 -34 92 -3 301 75 503 17 44 36 93 41 110 17 55 221 455
233 456 6 1 97 0 201 -2 521 -7 916 -1 1050 16 17 2 64 6 105 10 41 3 87 7
103 9 15 2 27 -2 28 -8 7 -100 92 -494 154 -716 27 -98 87 -255 126 -330 128
-249 273 -326 451 -243 72 34 157 93 222 155 40 38 40 39 21 54 -159 119 -283
355 -364 694 -28 117 -86 414 -106 535 -8 55 -17 109 -19 120 -2 11 -7 36 -10
55 -4 19 -9 51 -11 70 -1 19 -12 105 -24 190 -11 85 -23 184 -26 220 -3 36 -8
92 -11 125 -20 228 -29 442 -29 715 0 242 7 419 20 515 2 17 7 53 10 80 6 58
15 129 20 165 12 77 16 120 13 119 -2 0 -70 -16 -153 -34z m-432 -865 c4 -146
9 -303 11 -350 7 -113 23 -310 31 -385 2 -22 7 -69 10 -105 6 -62 10 -104 20
-180 2 -19 7 -64 11 -100 3 -36 8 -74 10 -85 2 -11 6 -43 9 -71 l5 -52 -73 -7
c-39 -4 -88 -8 -107 -10 -135 -15 -546 -20 -865 -11 -88 3 -175 5 -193 6 l-34
0 63 118 c194 364 407 666 880 1243 79 97 159 195 178 218 19 23 35 40 36 39
2 -2 5 -122 8 -268z"/>
<path d="M13930 13521 c-360 -79 -431 -122 -681 -411 -123 -143 -647 -805
-811 -1025 -21 -27 -41 -54 -46 -60 -54 -67 -279 -381 -387 -540 -119 -177
-103 -163 -188 -159 -123 6 -310 6 -362 -1 -160 -20 -301 -93 -384 -199 -34
-43 -87 -145 -97 -189 l-6 -27 49 24 c59 30 198 71 273 81 30 4 64 9 75 11 42
9 345 14 345 6 0 -4 -26 -51 -59 -104 -133 -216 -219 -378 -319 -598 -83 -186
-134 -419 -112 -517 18 -77 96 -119 200 -108 74 8 127 23 265 73 170 62 159
56 143 73 -97 99 -67 360 80 704 46 107 204 428 218 444 3 3 89 3 192 2 497
-9 893 -4 1067 13 17 2 64 6 106 10 41 4 88 9 102 10 15 2 27 -2 28 -8 0 -6 2
-22 5 -36 2 -14 14 -79 25 -145 11 -66 24 -133 29 -150 5 -16 11 -46 14 -65 3
-19 19 -89 36 -155 111 -432 236 -672 389 -747 117 -58 276 -2 448 157 l48 44
-58 52 c-32 29 -77 77 -99 107 -95 128 -185 358 -238 607 -11 50 -26 120 -34
156 -8 36 -17 81 -20 100 -3 19 -8 45 -11 59 -7 33 -14 72 -26 140 -11 60 -10
57 -34 215 -9 61 -18 121 -20 135 -2 14 -6 50 -10 80 -4 30 -8 66 -10 80 -2
14 -7 54 -10 90 -4 36 -8 78 -10 94 -2 17 -7 68 -10 115 -4 47 -9 102 -11 121
-17 171 -24 784 -11 960 8 105 17 193 22 226 2 12 7 48 10 80 4 33 9 66 10 74
8 42 17 130 14 129 -2 -1 -60 -14 -129 -28z m-456 -876 c3 -154 8 -298 10
-320 2 -22 7 -94 11 -160 4 -66 9 -128 11 -138 1 -10 6 -57 9 -105 3 -48 8
-98 10 -112 2 -14 6 -55 10 -91 3 -36 7 -76 10 -90 2 -13 6 -51 9 -84 3 -33 8
-69 10 -80 2 -11 7 -48 11 -82 7 -61 6 -63 -17 -64 -12 0 -30 -2 -39 -4 -61
-12 -366 -24 -614 -25 -200 -1 -586 8 -591 13 -11 11 292 526 339 577 9 11 17
22 17 25 0 22 535 717 590 765 3 3 41 50 85 105 44 55 88 109 98 119 9 11 17
24 17 30 0 5 2 7 4 5 2 -2 6 -130 10 -284z"/>
<path d="M21895 13524 c-60 -14 -121 -27 -135 -30 -50 -10 -186 -56 -240 -82
-62 -30 -249 -209 -367 -352 -108 -131 -429 -535 -513 -644 -41 -54 -83 -107
-94 -119 -91 -107 -656 -886 -656 -905 0 -4 -13 -21 -28 -38 -25 -28 -33 -31
-78 -28 -92 6 -319 6 -368 0 -63 -7 -189 -42 -229 -63 -55 -28 -133 -90 -164
-130 -46 -58 -131 -234 -105 -220 46 28 192 80 252 90 38 7 91 16 135 23 43 6
355 15 355 10 0 -2 -38 -67 -84 -144 -275 -460 -407 -779 -410 -992 -1 -52 4
-98 13 -117 19 -47 70 -74 142 -78 79 -4 114 5 305 72 l162 57 -24 35 c-53 81
-61 169 -29 321 20 93 80 278 111 344 13 28 24 54 24 59 0 11 159 329 188 377
l21 34 173 -3 c343 -7 746 -6 883 1 136 8 172 10 320 24 39 4 79 7 90 8 17 1
21 -9 32 -74 71 -420 166 -767 264 -963 156 -313 326 -370 573 -193 33 24 81
63 106 86 l45 41 -30 22 c-142 104 -264 329 -340 627 -31 122 -26 99 -60 265
-35 169 -34 164 -41 205 -4 19 -8 44 -10 55 -15 78 -38 233 -59 380 -32 235
-39 300 -51 445 -3 36 -7 88 -9 115 -27 319 -27 1001 0 1166 2 13 6 45 9 72
10 80 18 141 21 159 9 47 17 108 14 107 -2 0 -53 -12 -114 -25z m-478 -736 c0
-123 12 -462 18 -528 2 -19 6 -81 10 -137 3 -56 8 -116 10 -134 3 -18 7 -64
10 -103 3 -39 8 -87 10 -106 2 -19 7 -60 10 -90 3 -30 8 -71 10 -90 2 -19 7
-60 10 -90 6 -55 13 -111 21 -162 4 -26 4 -26 -74 -33 -42 -3 -91 -8 -107 -10
-46 -6 -353 -17 -495 -17 -150 -1 -583 12 -588 17 -2 2 10 27 26 57 16 29 48
89 72 133 50 92 191 319 258 415 55 78 264 363 272 370 3 3 30 37 60 75 30 39
57 72 60 75 3 3 32 39 65 80 33 41 72 88 86 105 32 36 121 145 192 236 29 37
55 65 58 63 4 -2 6 -59 6 -126z"/>
<path d="M2 8975 l3 -260 11282 -1 11283 -1 0 258 c0 200 -3 259 -12 260 -7 0
-5086 1 -11286 2 l-11272 2 2 -260z"/>
</g>
</svg>
